HIERARCHY
ROOT Hips
{
	OFFSET 0.00000 0.00000 0.00000
	CHANNELS 6 Xposition Yposition Zposition Zrotation Yrotation Xrotation 
	JOINT LHipJoint
	{
		OFFSET 0 0 0
		CHANNELS 3 Zrotation Yrotation Xrotation
		JOINT LeftHip
		{
			OFFSET 1.56857 -1.73443 1.15205
			CHANNELS 3 Zrotation Yrotation Xrotation
			JOINT LeftKnee
			{
				OFFSET 2.39362 -6.57643 0.00000
				CHANNELS 3 Zrotation Yrotation Xrotation
				JOINT LeftAnkle
				{
					OFFSET 2.50952 -6.89485 0.00000
					CHANNELS 3 Zrotation Yrotation Xrotation
					JOINT LeftToe
					{
						OFFSET 0.17171 -0.47178 1.88682
						CHANNELS 3 Zrotation Yrotation Xrotation
						End Site
						{
							OFFSET 0.00000 -0.00000 0.98146
						}
					}
				}
			}
		}
	}
	JOINT RHipJoint
	{
		OFFSET 0 0 0
		CHANNELS 3 Zrotation Yrotation Xrotation
		JOINT RightHip
		{
			OFFSET -1.28153 -1.73443 1.15205
			CHANNELS 3 Zrotation Yrotation Xrotation
			JOINT RightKnee
			{
				OFFSET -2.26861 -6.23296 0.00000
				CHANNELS 3 Zrotation Yrotation Xrotation
				JOINT RightAnkle
				{
					OFFSET -2.54143 -6.98254 0.00000
					CHANNELS 3 Zrotation Yrotation Xrotation
					JOINT RightToe
					{
						OFFSET -0.23309 -0.64041 1.93119
						CHANNELS 3 Zrotation Yrotation Xrotation
						End Site
						{
							OFFSET -0.00000 -0.00000 1.02013
						}
					}
				}
			}
		}
	}
	JOINT lowerback
	{
		OFFSET 0 0 0
		CHANNELS 3 Zrotation Yrotation Xrotation
		JOINT Chest
		{
			OFFSET -0.07096 2.10460 -0.27878
			CHANNELS 3 Zrotation Yrotation Xrotation
			JOINT Chest2
			{
				OFFSET -0.00826 2.13662 -0.08279
				CHANNELS 3 Zrotation Yrotation Xrotation
				JOINT lowerneck
				{
					OFFSET 0 0 0
					CHANNELS 3 Zrotation Yrotation Xrotation
					JOINT Neck
					{
						OFFSET 0.03239 1.77799 0.24435
						CHANNELS 3 Zrotation Yrotation Xrotation
						JOINT Head
						{
							OFFSET 0.01026 1.74194 -0.49664
							CHANNELS 3 Zrotation Yrotation Xrotation
							End Site
							{
								OFFSET 0.00170 1.83057 -0.19653
							}
						}
					}
				}
				JOINT LeftCollar
				{
					OFFSET 0 0 0
					CHANNELS 3 Zrotation Yrotation Xrotation
					JOINT LeftShoulder
					{
						OFFSET 3.19178 1.35907 -0.31412
CHANNELS 3 Zrotation Xrotation Yrotation
						JOINT LeftElbow
						{
OFFSET 0 -4.852470 -0.000000
CHANNELS 3 Zrotation Xrotation Yrotation
							JOINT LeftWrist
							{
OFFSET 0 -3.555840 0.000000
CHANNELS 3 Zrotation Xrotation Yrotation
								JOINT lhand
								{
									OFFSET 0 0 0
CHANNELS 3 Zrotation Xrotation Yrotation
									JOINT LFingers
									{
OFFSET 0 -0.693200 0.000000
CHANNELS 3 Zrotation Xrotation Yrotation
										End Site
										{
OFFSET 0 -0.558880 0.000000
										}
									}
								}
								JOINT LThumb
								{
OFFSET 0 0.000000 0.000000
CHANNELS 3 Zrotation Xrotation Yrotation
									End Site
									{
OFFSET 0 -0.567410 0.567410
									}
								}
							}
						}
					}
				}
				JOINT RightCollar
				{
					OFFSET 0 0 0
					CHANNELS 3 Zrotation Yrotation Xrotation
					JOINT RightShoulder
					{
						OFFSET -3.28999 1.24191 -0.26899
CHANNELS 3 Zrotation Xrotation Yrotation
						JOINT RightElbow
						{
OFFSET 0 -4.644620 0.000000
CHANNELS 3 Zrotation Xrotation Yrotation
							JOINT RightWrist
							{
OFFSET 0 -3.407030 0.000000
CHANNELS 3 Zrotation Xrotation Yrotation
								JOINT rhand
								{
									OFFSET 0 0 0
CHANNELS 3 Zrotation Xrotation Yrotation
									JOINT RFingers
									{
OFFSET 0 -0.619580 0.000000
CHANNELS 3 Zrotation Xrotation Yrotation
										End Site
										{
OFFSET 0 -0.499520 0.000000
										}
									}
								}
								JOINT RThumb
								{
OFFSET 0 0.000000 0.000000
CHANNELS 3 Zrotation Xrotation Yrotation
									End Site
									{
OFFSET 0 -0.507150 0.507150
									}
								}
							}
						}
					}
				}
			}
		}
	}
}
MOTION
Frames: 10
Frame Time: 0.008333333333333333
-3.773163 16.454583 -3.592765 107.602958 73.316446 132.762319 0.000000 0.000000 0.000000 -46.518837 -4.264405 -2.344670 0.806416 5.726543 15.994308 -0.837483 -19.441879 -4.700987 0.579251 4.870781 13.541009 0.000000 0.000000 0.000000 -24.077624 12.845393 -29.091819 -11.085066 -17.976030 63.057187 139.707353 -12.027271 176.576108 -1.083352 -6.615396 18.580862 -5.883794 2.554485 22.431780 6.260441 2.987447 5.183187 9.497346 1.792248 -7.422333 3.433474 2.679738 -26.850274 -10.190740 4.297045 9.364830 -3.383293 1.236856 7.511296 0.000000 0.000000 0.000000 98.696821 -22.861262 18.623067 44.121728 -50.330876 21.560584 46.746548 -45.554602 30.733055 0.000000 0.000000 0.000000 -7.125000 0.000000 0.000000 8.437850 -10.577004 9.942458 0.000000 0.000000 0.000000 -33.763503 1.109873 73.071083 -125.375811 -54.698126 -90.090953 -12.455152 -11.184054 15.663268 0.000000 0.000000 0.000000 7.125000 0.000000 0.000000 14.200171 45.509571 -0.182131
-3.436204 16.571198 -3.558191 109.435648 71.908573 136.134945 0.000000 0.000000 0.000000 -46.650619 -4.147492 -1.207229 0.533532 4.665396 12.959166 -0.921018 -17.907834 0.025894 0.800637 5.692969 15.901198 0.000000 0.000000 0.000000 -26.600513 12.335399 -36.421858 -11.706548 -18.259272 65.050564 139.630642 -13.675166 175.881970 -1.010805 -6.392437 17.928814 -6.504233 2.226172 21.102327 6.269987 2.436210 4.628148 10.049558 1.534490 -7.243749 2.882397 2.463254 -26.199941 -10.321941 4.259605 9.823033 -3.345955 1.184780 7.557519 0.000000 0.000000 0.000000 97.502909 -23.736332 13.838781 44.157585 -50.349019 21.588181 44.611515 -43.035735 30.771213 0.000000 0.000000 0.000000 -7.125000 0.000000 0.000000 7.287270 -9.646755 8.469393 0.000000 0.000000 0.000000 -35.856023 2.459996 73.133740 -126.207160 -54.415085 -90.768241 -13.452706 -10.751747 15.751971 0.000000 0.000000 0.000000 7.125000 0.000000 0.000000 13.323228 45.719181 -0.240095
-3.046652 16.701267 -3.518189 113.072217 70.071336 140.178524 0.000000 0.000000 0.000000 -46.013672 -2.347594 0.703904 0.316535 3.589333 9.926840 -0.866876 -16.470325 6.049842 1.236828 7.021313 19.791720 0.000000 0.000000 0.000000 -27.862882 11.355312 -40.948642 -12.901781 -18.736229 68.810380 139.467673 -15.964680 175.586620 -0.805901 -5.722142 15.982201 -6.686255 1.580100 20.609085 6.316854 1.586454 4.512406 10.452453 1.118730 -6.923754 2.646754 2.397805 -26.238953 -10.543199 4.356874 10.566338 -3.378334 1.172520 7.825451 0.000000 0.000000 0.000000 96.175744 -24.603429 9.237157 44.141536 -50.340855 21.575817 42.666747 -40.963808 31.008816 0.000000 0.000000 0.000000 -7.125000 0.000000 0.000000 6.172610 -9.087103 7.111794 0.000000 0.000000 0.000000 -37.625676 3.454497 72.942666 -126.504985 -54.311420 -91.010281 -15.119447 -9.986103 15.553498 0.000000 0.000000 0.000000 7.125000 0.000000 0.000000 11.749348 45.725270 -0.217470
-2.644588 16.845097 -3.490383 116.858952 68.351524 143.791035 0.000000 0.000000 0.000000 -44.618728 1.136875 2.375399 0.164975 2.587373 7.133670 -0.491850 -14.524268 13.028447 1.854721 8.524398 24.339033 0.000000 0.000000 0.000000 -28.652735 10.477812 -44.427980 -14.367016 -19.209490 73.313048 139.270031 -18.132583 175.635936 -0.670258 -5.234889 14.579897 -6.282710 0.859270 20.723336 6.309508 0.750631 4.597626 10.423040 0.700557 -6.691186 2.616295 2.383677 -26.644180 -10.817243 4.484407 11.487962 -3.463555 1.159736 8.222115 0.000000 0.000000 0.000000 94.594761 -25.428107 4.592194 43.931040 -50.233702 21.413958 40.724518 -37.471371 30.021377 0.000000 0.000000 0.000000 -7.125000 0.000000 0.000000 5.375596 -7.202358 6.035260 0.000000 0.000000 0.000000 -39.057471 4.311399 72.566410 -126.299308 -54.383041 -90.843130 -17.248804 -9.499189 14.929178 0.000000 0.000000 0.000000 7.125000 0.000000 0.000000 9.635120 45.355247 -0.087564
-2.258930 16.960484 -3.460155 118.169957 67.416615 145.961563 0.000000 0.000000 0.000000 -42.832038 5.620604 2.040069 0.078588 1.778208 4.893865 0.353262 -11.292725 20.001755 2.527601 9.869363 28.570836 0.000000 0.000000 0.000000 -30.006105 10.203330 -48.618715 -16.325427 -19.642328 79.183868 133.197520 -36.441263 -7.366153 -0.583027 -4.882550 13.575106 -6.259008 0.478968 19.745834 6.235396 0.277554 4.560777 10.414099 0.435137 -6.107138 2.613978 2.396971 -27.105341 -11.119206 4.648292 12.347507 -3.559353 1.162167 8.615218 0.000000 0.000000 0.000000 92.770082 -26.160997 -0.086821 43.511162 -50.017356 21.091845 39.169358 -33.356567 27.994411 0.000000 0.000000 0.000000 -7.125000 0.000000 0.000000 5.006809 -4.340670 5.391341 0.000000 0.000000 0.000000 -40.243746 5.025079 72.168513 -125.823422 -54.546665 -90.455801 -19.185883 -9.580431 14.829316 0.000000 0.000000 0.000000 7.125000 0.000000 0.000000 7.831316 45.493898 -0.091765
-1.845851 17.078409 -3.417540 119.548043 65.913881 147.490245 0.000000 0.000000 0.000000 -40.707876 11.417457 2.069489 0.035603 1.201964 3.304815 1.428969 -7.783484 26.477724 2.791537 10.349645 30.116651 0.000000 0.000000 0.000000 -31.074185 9.730853 -50.887963 -18.594973 -19.932382 85.884412 57.143584 -68.289743 -129.004160 -0.349561 -3.734734 10.339112 -6.482010 0.001974 19.465017 6.104567 -0.385570 4.590242 10.548892 0.095598 -5.771601 2.523351 2.364529 -27.159475 -11.576480 4.810832 13.034110 -3.691593 1.160958 8.892025 0.000000 0.000000 0.000000 90.624070 -27.116083 -4.887307 42.951648 -49.724026 20.664076 37.632986 -29.205124 25.591791 0.000000 0.000000 0.000000 -7.125000 0.000000 0.000000 4.665293 -1.097148 4.772858 0.000000 0.000000 0.000000 -41.179997 5.945424 71.637797 -125.069509 -54.799340 -89.840570 -20.777565 -9.400758 15.154422 0.000000 0.000000 0.000000 7.125000 0.000000 0.000000 6.433366 46.035564 -0.161994
-1.398118 17.193079 -3.364241 120.932227 63.751248 148.374950 0.000000 0.000000 0.000000 -38.199949 17.073177 3.090109 0.020599 0.923429 2.538197 2.304151 -5.486711 30.996691 2.532990 9.893305 28.635804 0.000000 0.000000 0.000000 -31.924824 8.985945 -51.148012 -19.111627 -19.980867 87.401757 -120.121687 -60.036415 -47.909161 -0.160068 -2.548518 7.025875 -6.885974 -0.548741 19.857779 5.931289 -1.199971 4.577756 10.807488 -0.290813 -5.794933 2.073910 2.223203 -27.134508 -11.995523 5.004290 14.068495 -3.754585 1.147446 9.275254 0.000000 0.000000 0.000000 87.982768 -28.432778 -9.814566 42.295804 -49.372090 20.164981 35.392324 -25.531112 23.579053 0.000000 0.000000 0.000000 -7.125000 0.000000 0.000000 3.745442 1.859955 3.637906 0.000000 0.000000 0.000000 -42.023550 7.270062 70.855732 -123.793372 -55.209293 -88.794930 -22.093980 -8.894214 14.977865 0.000000 0.000000 0.000000 7.125000 0.000000 0.000000 5.172732 46.020046 -0.131841
-1.017231 17.269574 -3.345365 119.217194 63.618417 148.006471 0.000000 0.000000 0.000000 -38.257636 16.292821 3.550349 0.018437 0.877117 2.410689 1.568397 -4.878151 25.738494 1.683067 8.143871 23.168844 0.000000 0.000000 0.000000 -33.781864 9.321931 -54.634916 -17.313352 -19.815515 82.119525 -176.722630 -26.242453 -18.706239 -0.104280 -2.080390 5.728045 -7.267850 -0.388840 18.522817 5.549066 -1.095012 4.275079 10.517993 -0.271655 -5.443506 1.522358 2.064836 -27.572976 -12.228017 5.248771 15.573521 -3.743395 1.132995 9.903360 0.000000 0.000000 0.000000 84.647103 -29.761041 -14.514748 41.373686 -48.862147 19.467814 32.552504 -21.317370 21.857412 0.000000 0.000000 0.000000 -7.125000 0.000000 0.000000 2.320932 4.541899 2.138061 0.000000 0.000000 0.000000 -42.610108 8.502895 69.821443 -122.071053 -55.730527 -87.375965 -22.374182 -8.668496 15.090023 0.000000 0.000000 0.000000 7.125000 0.000000 0.000000 4.933061 46.176534 -0.143595
-0.627454 17.329149 -3.335560 119.238903 63.296046 149.202446 0.000000 0.000000 0.000000 -38.278662 12.179190 5.141332 0.033697 1.185423 3.259083 0.520391 -2.864212 14.952033 0.279010 3.374639 9.326713 0.000000 0.000000 0.000000 -34.805433 9.355177 -56.781582 -14.371622 -19.221638 73.335392 177.440325 10.268936 -9.805661 -0.031067 -1.135910 3.122949 -6.925273 -0.563152 17.077611 5.197439 -1.267258 3.991325 9.887401 -0.398642 -4.963262 1.108872 1.878439 -27.682973 -12.323304 5.304515 16.497566 -3.723120 1.084317 10.256132 0.000000 0.000000 0.000000 80.368074 -30.805447 -18.941975 40.268298 -48.227956 18.639118 29.312403 -16.035238 20.091818 0.000000 0.000000 0.000000 -7.125000 0.000000 0.000000 0.555748 7.222242 0.481981 0.000000 0.000000 0.000000 -42.774881 9.627908 68.545868 -120.478870 -56.180872 -86.057066 -21.810997 -8.752732 15.951499 0.000000 0.000000 0.000000 7.125000 0.000000 0.000000 5.643551 47.012584 -0.281201
-0.187582 17.381684 -3.305365 120.955679 62.336899 150.791494 0.000000 0.000000 0.000000 -37.342409 8.786919 7.913337 0.080622 1.817585 5.002242 0.130262 1.823342 6.464724 0.111473 2.152448 5.927086 0.000000 0.000000 0.000000 -34.761323 9.655923 -56.291831 -11.840412 -18.307009 65.463745 179.834906 11.825495 -10.447411 -0.002142 -0.044492 0.122144 -6.561084 -0.966995 16.591467 5.020383 -1.721898 4.046537 9.533168 -0.649350 -4.563105 0.743613 1.628625 -27.286984 -12.479312 5.156186 16.555057 -3.741042 0.990674 10.198058 0.000000 0.000000 0.000000 76.614666 -31.852799 -23.051945 38.807880 -47.345678 17.557897 25.672237 -11.874569 18.298570 0.000000 0.000000 0.000000 -7.125000 0.000000 0.000000 -1.582781 9.831623 -1.281894 0.000000 0.000000 0.000000 -42.944267 10.494496 67.053858 -118.696310 -56.645189 -84.571527 -21.624680 -8.913487 16.182669 0.000000 0.000000 0.000000 7.125000 0.000000 0.000000 5.871229 47.230594 -0.324167
